<svg xmlns="http://www.w3.org/2000/svg"  viewBox="0 0 48 48" width="48px" height="48px" baseProfile="basic"><linearGradient id="3-V6E_FkAVgS20vXBu_RRa" x1="15.686" x2="31.682" y1="3.063" y2="30.77" gradientUnits="userSpaceOnUse"><stop offset="0" stop-color="#262626" stop-opacity="0"/><stop offset="1" stop-color="#262626" stop-opacity=".8"/></linearGradient><path fill="url(#3-V6E_FkAVgS20vXBu_RRa)" d="M24.243,5.757L6,24l6,6L38,4h-9.515C26.894,4,25.368,4.632,24.243,5.757z"/><linearGradient id="3-V6E_FkAVgS20vXBu_RRb" x1="21.397" x2="34.364" y1="18.66" y2="41.12" gradientUnits="userSpaceOnUse"><stop offset="0" stop-color="#262626" stop-opacity="0"/><stop offset="1" stop-color="#262626" stop-opacity=".8"/></linearGradient><polygon fill="url(#3-V6E_FkAVgS20vXBu_RRb)" points="38,22 26,22 15,33 21,39"/><linearGradient id="3-V6E_FkAVgS20vXBu_RRc" x1="15.21" x2="39.849" y1="18.947" y2="61.621" gradientUnits="userSpaceOnUse"><stop offset="0" stop-color="#262626" stop-opacity="0"/><stop offset="1" stop-color="#262626" stop-opacity=".8"/></linearGradient><path fill="url(#3-V6E_FkAVgS20vXBu_RRc)" d="M27,33l-0.002,0.002L26.999,33l-6-6l-6,6l6,6l0.002,0L21,39l3.243,3.243	C25.368,43.368,26.894,44,28.485,44H38L27,33z"/></svg>